# 3ds Max Wavefront OBJ Exporter v0.97b - (c)2007 guruware
# File Created: 04.03.2015 12:49:06

#
# object Plane002
#

v  -870.5251 -281.2551 -0.0000
v  942.3102 55.8565 -0.0000
v  845.9926 269.1313 0.0000
v  -959.9629 31.7772 0.0000
v  -361.4177 -845.4012 -0.0000
v  429.7628 -848.8411 -0.0000
v  787.5140 -497.9698 -0.0000
v  -633.1711 -628.6865 -0.0000
v  391.1646 743.8396 0.0000
v  -529.2134 888.3160 0.0000
v  -818.9264 530.5649 0.0000
v  821.1539 613.1229 0.0000
# 12 vertices

vn 0.0000 -0.0000 1.0000
vn -0.0000 -0.0000 1.0000
# 2 vertex normals

vt 0.0590 0.3380 0.0000
vt 0.9868 0.5197 0.0000
vt 0.9375 0.6347 0.0000
vt 0.0132 0.5067 0.0000
vt 0.3195 0.0339 0.0000
vt 0.7245 0.0320 0.0000
vt 0.9076 0.2212 0.0000
vt 0.1805 0.1507 0.0000
vt 0.7047 0.8906 0.0000
vt 0.2337 0.9684 0.0000
vt 0.0854 0.7756 0.0000
vt 0.9248 0.8201 0.0000
# 12 texture coords

g Plane002
s 1
f 1/1/1 2/2/1 3/3/1 4/4/1 
f 5/5/1 6/6/2 7/7/1 8/8/1 
f 8/8/1 7/7/1 2/2/1 1/1/1 
f 9/9/1 10/10/2 11/11/2 12/12/1 
f 12/12/1 11/11/2 4/4/1 3/3/1 
# 5 polygons

