# 3ds Max Wavefront OBJ Exporter v0.97b - (c)2007 guruware
# File Created: 04.03.2015 13:00:26

#
# object Plane002
#

v  -531.8843 -169.8176 -0.0000
v  236.7500 -286.5721 -0.0000
v  71.3476 113.3123 0.0000
v  -463.7775 159.5276 0.0000
v  -473.5071 -770.1307 -0.0000
v  577.2842 -774.9954 -0.0000
v  489.7183 -423.7588 -0.0000
v  -449.1832 -479.7037 -0.0000
v  149.1841 772.0027 0.0000
v  -220.5388 818.2181 0.0000
v  -529.4520 659.1400 0.0000
v  253.7767 530.2234 0.0000
# 12 vertices

vn -0.0000 -0.0000 1.0000
vn 0.0000 -0.0000 1.0000
# 2 vertex normals

vt 0.1181 0.3798 0.0000
vt 0.6300 0.3066 0.0000
vt 0.5198 0.5576 0.0000
vt 0.1634 0.5866 0.0000
vt 0.1569 0.0031 0.0000
vt 0.8568 0.0000 0.0000
vt 0.7985 0.2205 0.0000
vt 0.1731 0.1853 0.0000
vt 0.5717 0.9710 0.0000
vt 0.3254 1.0000 0.0000
vt 0.1197 0.9002 0.0000
vt 0.6414 0.8192 0.0000
# 12 texture coords

g Plane002
s 1
f 1/1/1 2/2/2 3/3/1 4/4/1 
f 5/5/2 6/6/1 7/7/2 8/8/1 
f 8/8/1 7/7/2 2/2/2 1/1/1 
f 9/9/1 10/10/1 11/11/1 12/12/1 
f 12/12/1 11/11/1 4/4/1 3/3/1 
# 5 polygons

