# 3ds Max Wavefront OBJ Exporter v0.97b - (c)2007 guruware
# File Created: 04.03.2015 14:25:04

#
# object Plane002
#

v  -299.7225 -196.6568 158.8065
v  37.9422 -233.5283 158.8065
v  462.9339 106.4651 158.8065
v  -563.6442 -11.9115 158.8065
v  -361.8217 -672.8804 158.8065
v  84.5166 -680.6428 158.8065
v  8.8331 -441.5607 158.8065
v  -324.9503 -433.7984 158.8065
v  600.4323 539.9956 158.8065
v  -606.3375 685.5406 158.8065
v  -625.7435 291.2104 158.8065
v  620.1226 394.0623 158.8065
# 12 vertices

vn 0.0000 -0.0000 1.0000
vn -0.0000 -0.0000 1.0000
# 2 vertex normals

vt 0.2617 0.3543 0.0000
vt 0.5327 0.3273 0.0000
vt 0.8738 0.5761 0.0000
vt 0.0498 0.4895 0.0000
vt 0.2118 0.0057 0.0000
vt 0.5701 0.0000 0.0000
vt 0.5093 0.1750 0.0000
vt 0.2414 0.1807 0.0000
vt 0.9842 0.8935 0.0000
vt 0.0156 1.0000 0.0000
vt 0.0000 0.7114 0.0000
vt 1.0000 0.7866 0.0000
# 12 texture coords

g Plane002
s 1
f 1/1/1 2/2/2 3/3/1 4/4/1 
f 5/5/2 6/6/2 7/7/2 8/8/2 
f 8/8/2 7/7/2 2/2/2 1/1/1 
f 9/9/1 10/10/2 11/11/1 12/12/1 
f 12/12/1 11/11/1 4/4/1 3/3/1 
# 5 polygons

