# 3ds Max Wavefront OBJ Exporter v0.97b - (c)2007 guruware
# File Created: 04.03.2015 13:12:13

#
# object Plane002
#

v  -738.8038 -263.4595 -0.0000
v  747.3706 4.0150 -0.0000
v  453.0484 180.8949 0.0000
v  -766.9650 2.8051 0.0000
v  -539.5105 -616.1914 -0.0000
v  686.1448 -603.1940 -0.0000
v  729.7550 -276.8441 -0.0000
v  -756.1337 -503.7294 -0.0000
v  353.9732 651.6315 0.0000
v  -247.0690 669.6409 0.0000
v  -736.6376 355.7192 0.0000
v  546.4823 457.4217 0.0000
# 12 vertices

vn 0.0000 -0.0000 1.0000
vn -0.0000 -0.0000 1.0000
# 2 vertex normals

vt 0.0186 0.2976 0.0000
vt 1.0000 0.4842 0.0000
vt 0.8056 0.6075 0.0000
vt 0.0000 0.4833 0.0000
vt 0.1502 0.0516 0.0000
vt 0.9596 0.0607 0.0000
vt 0.9884 0.2883 0.0000
vt 0.0072 0.1301 0.0000
vt 0.7402 0.9358 0.0000
vt 0.3433 0.9484 0.0000
vt 0.0200 0.7294 0.0000
vt 0.8673 0.8004 0.0000
# 12 texture coords

g Plane002
s 1
f 1/1/1 2/2/1 3/3/1 4/4/1 
f 5/5/1 6/6/1 7/7/1 8/8/1 
f 8/8/1 7/7/1 2/2/1 1/1/1 
f 9/9/1 10/10/2 11/11/1 12/12/1 
f 12/12/1 11/11/1 4/4/1 3/3/1 
# 5 polygons

