# 3ds Max Wavefront OBJ Exporter v0.97b - (c)2007 guruware
# File Created: 04.03.2015 11:03:03

#
# object Plane002
#

v  -440.2474 567.0227 0.0000
v  331.3915 567.0228 0.0000
v  362.5598 815.4966 0.0001
v  -672.5522 700.3299 0.0001
v  -538.5607 -231.9558 -0.0001
v  594.0863 -231.9558 -0.0001
v  594.0863 165.2845 -0.0001
v  -538.5607 165.2845 -0.0001
v  403.2873 1461.8312 0.0002
v  -575.4805 1407.9602 0.0002
v  -452.1841 1236.1324 0.0001
v  724.8053 1441.6248 0.0001
v  691.1259 1225.8806 0.0001
v  -726.3008 1064.3767 0.0001
v  405.6826 1772.2374 0.0002
v  -555.1781 1772.2374 0.0002
# 16 vertices

vn 0.0000 -0.0000 1.0000
# 1 vertex normals

vt 0.2665 0.3987 0.0000
vt 0.6765 0.3987 0.0000
vt 0.6930 0.5226 0.0000
vt 0.1430 0.4652 0.0000
vt 0.2142 0.0000 0.0000
vt 0.8161 0.0000 0.0000
vt 0.8161 0.1982 0.0000
vt 0.2142 0.1982 0.0000
vt 0.7147 0.8451 0.0000
vt 0.1946 0.8182 0.0000
vt 0.2601 0.7325 0.0000
vt 0.8855 0.8350 0.0000
vt 0.8676 0.7274 0.0000
vt 0.1145 0.6468 0.0000
vt 0.7160 1.0000 0.0000
vt 0.2054 1.0000 0.0000
# 16 texture coords

g Plane002
s 1
f 1/1/1 2/2/1 3/3/1 4/4/1 
f 5/5/1 6/6/1 7/7/1 8/8/1 
f 8/8/1 7/7/1 2/2/1 1/1/1 
f 9/9/1 10/10/1 11/11/1 12/12/1 
f 3/3/1 13/13/1 14/14/1 4/4/1 
f 11/11/1 14/14/1 13/13/1 12/12/1 
f 15/15/1 16/16/1 10/10/1 9/9/1 
# 7 polygons

