# 3ds Max Wavefront OBJ Exporter v0.97b - (c)2007 guruware
# File Created: 04.03.2015 15:25:50

mtllib watertower.mtl

#
# object Plane002
#

v  -219.0254 36.3494 -0.0000
v  232.9933 36.3494 -0.0000
v  231.3066 243.8057 -0.0000
v  -220.7120 243.8057 -0.0000
v  238.0532 496.8012 0.0000
v  -232.5184 498.4879 0.0000
v  -148.1866 780.1561 0.0000
v  -160.8364 614.0225 0.0000
v  158.7813 614.0225 0.0000
v  158.7813 778.4695 0.0000
v  20.4770 871.2345 0.0000
v  -21.6888 866.1747 0.0000
# 12 vertices

vn -0.0000 -0.0000 1.0000
vn 0.0000 -0.0000 1.0000
# 2 vertex normals

vt 0.2152 0.0003 0.0000
vt 0.7957 0.0003 0.0000
vt 0.7935 0.2487 0.0000
vt 0.2130 0.2487 0.0000
vt 0.8022 0.5515 0.0000
vt 0.1978 0.5535 0.0000
vt 0.3061 0.8906 0.0000
vt 0.2899 0.6918 0.0000
vt 0.7004 0.6918 0.0000
vt 0.7004 0.8886 0.0000
vt 0.5227 0.9997 0.0000
vt 0.4686 0.9936 0.0000
# 12 texture coords

g Plane002
usemtl wire_196088225
s 1
f 1/1/1 2/2/1 3/3/1 4/4/1 
f 4/4/1 3/3/1 5/5/1 6/6/1 
f 7/7/2 8/8/1 9/9/1 10/10/1 
f 7/7/2 10/10/1 11/11/2 12/12/2 
f 8/8/1 6/6/1 5/5/1 9/9/1 
# 5 polygons

