# 3ds Max Wavefront OBJ Exporter v0.97b - (c)2007 guruware
# File Created: 06.03.2015 11:24:23

#
# object Box001
#

v  -7.3578 0.5000 7.2602
v  -7.3578 0.5000 -7.4908
v  7.3931 0.5000 -7.4908
v  7.3931 0.5000 7.2602
v  -7.3578 19.5000 7.2602
v  7.3931 19.5000 7.2602
v  7.3931 19.5000 -7.4908
v  -7.3578 19.5000 -7.4908
v  -7.3578 2.6245 9.3847
v  7.3931 2.6245 9.3847
v  7.3931 17.3755 9.3847
v  -7.3578 17.3755 9.3847
v  9.5176 2.6245 7.2602
v  9.5176 2.6245 -7.4908
v  9.5176 17.3755 -7.4908
v  9.5176 17.3755 7.2602
v  7.3931 2.6245 -9.6153
v  -7.3578 2.6245 -9.6153
v  -7.3578 17.3755 -9.6153
v  7.3931 17.3755 -9.6153
v  -9.4824 2.6245 -7.4908
v  -9.4824 2.6245 7.2602
v  -9.4824 17.3755 7.2602
v  -9.4824 17.3755 -7.4908
v  -9.9824 0.0000 9.8847
v  -9.9824 0.0000 -10.1153
v  -7.5719 0.0000 -7.7049
v  -7.5719 0.0000 7.4743
v  10.0176 0.0000 -10.1153
v  7.6072 0.0000 -7.7049
v  10.0176 0.0000 9.8847
v  7.6072 0.0000 7.4743
v  -9.9824 20.0000 9.8847
v  10.0176 20.0000 9.8847
v  7.6072 20.0000 7.4743
v  -7.5719 20.0000 7.4743
v  10.0176 20.0000 -10.1153
v  7.6072 20.0000 -7.7049
v  -9.9824 20.0000 -10.1153
v  -7.5719 20.0000 -7.7049
v  7.6072 2.4104 9.8847
v  -7.5719 2.4104 9.8847
v  7.6072 17.5896 9.8847
v  -7.5719 17.5896 9.8847
v  10.0176 2.4104 -7.7049
v  10.0176 2.4104 7.4743
v  10.0176 17.5896 -7.7049
v  10.0176 17.5896 7.4743
v  -7.5719 2.4104 -10.1153
v  7.6072 2.4104 -10.1153
v  -7.5719 17.5896 -10.1153
v  7.6072 17.5896 -10.1153
v  -9.9824 2.4104 7.4743
v  -9.9824 2.4104 -7.7049
v  -9.9824 17.5896 7.4743
v  -9.9824 17.5896 -7.7049
# 56 vertices

vn 0.0000 -1.0000 -0.0000
vn 0.0000 1.0000 -0.0000
vn 0.0000 0.0000 1.0000
vn 1.0000 0.0000 -0.0000
vn 0.0000 0.0000 -1.0000
vn -1.0000 0.0000 -0.0000
vn 0.9193 -0.3936 -0.0000
vn 0.0000 -0.3936 0.9193
vn -0.9193 -0.3936 -0.0000
vn 0.0000 -0.3936 -0.9193
vn 0.0000 0.3936 -0.9193
vn -0.9193 0.3936 -0.0000
vn 0.0000 0.3936 0.9193
vn 0.9193 0.3936 -0.0000
vn 0.0000 0.9193 0.3936
vn -0.9193 0.0000 0.3936
vn 0.0000 -0.9193 0.3936
vn 0.9193 0.0000 0.3936
vn 0.3936 0.9193 -0.0000
vn 0.3936 0.0000 0.9193
vn 0.3936 -0.9193 -0.0000
vn 0.3936 0.0000 -0.9193
vn 0.0000 0.9193 -0.3936
vn 0.9193 0.0000 -0.3936
vn 0.0000 -0.9193 -0.3936
vn -0.9193 0.0000 -0.3936
vn -0.3936 0.9193 -0.0000
vn -0.3936 0.0000 -0.9193
vn -0.3936 -0.9193 -0.0000
vn -0.3936 0.0000 0.9193
# 30 vertex normals

vt 0.1427 0.1406 0.0000
vt 0.1427 0.8534 0.0000
vt 0.8555 0.8534 0.0000
vt 0.8555 0.1406 0.0000
vt 0.1427 0.1405 0.0000
vt 0.8555 0.1405 0.0000
vt 0.8555 0.8533 0.0000
vt 0.1427 0.8533 0.0000
vt 0.0159 0.0137 0.0000
vt 0.0159 0.9802 0.0000
vt 0.1324 0.8637 0.0000
vt 0.1324 0.1302 0.0000
vt 0.9823 0.9802 0.0000
vt 0.8659 0.8637 0.0000
vt 0.9823 0.0137 0.0000
vt 0.8659 0.1302 0.0000
vt 0.9823 0.9801 0.0000
vt 0.0159 0.9801 0.0000
# 18 texture coords

g Box001
s 2
f 1/1/1 2/2/1 3/3/1 4/4/1 
s 4
f 5/5/2 6/6/2 7/7/2 8/8/2 
s 8
f 9/1/3 10/4/3 11/3/3 12/2/3 
s 16
f 13/4/4 14/1/4 15/2/4 16/3/4 
s 32
f 17/6/5 18/5/5 19/8/5 20/7/5 
s 64
f 21/5/6 22/6/6 23/7/6 24/8/6 
s off
f 25/9/1 26/10/1 27/11/1 28/12/1 
f 26/10/1 29/13/1 30/14/1 27/11/1 
f 29/13/1 31/15/1 32/16/1 30/14/1 
f 31/15/1 25/9/1 28/12/1 32/16/1 
f 33/9/2 34/15/2 35/16/2 36/12/2 
f 34/15/2 37/17/2 38/14/2 35/16/2 
f 37/17/2 39/18/2 40/11/2 38/14/2 
f 39/18/2 33/9/2 36/12/2 40/11/2 
f 25/9/3 31/15/3 41/16/3 42/12/3 
f 31/15/3 34/13/3 43/14/3 41/16/3 
f 34/13/3 33/10/3 44/11/3 43/14/3 
f 33/10/3 25/9/3 42/12/3 44/11/3 
f 31/15/4 29/9/4 45/12/4 46/16/4 
f 29/9/4 37/10/4 47/11/4 45/12/4 
f 37/10/4 34/13/4 48/14/4 47/11/4 
f 34/13/4 31/15/4 46/16/4 48/14/4 
f 29/15/5 26/9/5 49/12/5 50/16/5 
f 26/9/5 39/18/5 51/11/5 49/12/5 
f 39/18/5 37/17/5 52/14/5 51/11/5 
f 37/17/5 29/15/5 50/16/5 52/14/5 
f 26/9/6 25/15/6 53/16/6 54/12/6 
f 25/15/6 33/17/6 55/14/6 53/16/6 
f 33/17/6 39/18/6 56/11/6 55/14/6 
f 39/18/6 26/9/6 54/12/6 56/11/6 
f 28/12/7 27/11/7 2/2/7 1/1/7 
f 27/11/8 30/14/8 3/3/8 2/2/8 
f 30/14/9 32/16/9 4/4/9 3/3/9 
f 32/16/10 28/12/10 1/1/10 4/4/10 
f 36/12/11 35/16/11 6/6/11 5/5/11 
f 35/16/12 38/14/12 7/7/12 6/6/12 
f 38/14/13 40/11/13 8/8/13 7/7/13 
f 40/11/14 36/12/14 5/5/14 8/8/14 
f 42/12/15 41/16/15 10/4/15 9/1/15 
f 41/16/16 43/14/16 11/3/16 10/4/16 
f 43/14/17 44/11/17 12/2/17 11/3/17 
f 44/11/18 42/12/18 9/1/18 12/2/18 
f 46/16/19 45/12/19 14/1/19 13/4/19 
f 45/12/20 47/11/20 15/2/20 14/1/20 
f 47/11/21 48/14/21 16/3/21 15/2/21 
f 48/14/22 46/16/22 13/4/22 16/3/22 
f 50/16/23 49/12/23 18/5/23 17/6/23 
f 49/12/24 51/11/24 19/8/24 18/5/24 
f 51/11/25 52/14/25 20/7/25 19/8/25 
f 52/14/26 50/16/26 17/6/26 20/7/26 
f 54/12/27 53/16/27 22/6/27 21/5/27 
f 53/16/28 55/14/28 23/7/28 22/6/28 
f 55/14/29 56/11/29 24/8/29 23/7/29 
f 56/11/30 54/12/30 21/5/30 24/8/30 
# 54 polygons

