# 3ds Max Wavefront OBJ Exporter v0.97b - (c)2007 guruware
# File Created: 18.03.2015 10:51:25

mtllib Sign.mtl

#
# object Box001
#

v  0.1866 80.0013 3.0576
v  -1.1128 79.7267 -3.9761
v  -3.4635 43.6232 -2.2654
v  -2.1396 43.6232 4.7622
v  0.2404 79.3092 -3.9358
v  -2.0848 43.6232 -2.2654
v  1.4194 79.5533 2.3940
v  -0.8836 43.6232 4.0586
v  4.5577 164.4415 -10.4507
v  5.8110 164.2189 -3.3940
v  7.0734 164.1789 -4.0671
v  5.9357 164.3796 -10.4175
v  -3.4635 0.0000 -2.2654
v  -2.0848 0.0000 -2.2654
v  -0.8836 0.0000 4.0586
v  -2.1396 0.0000 4.7622
v  1.4193 79.7400 4.3264
v  6.2895 120.5397 -3.1581
v  5.0466 120.6248 -4.4257
v  7.0539 164.1338 -2.1264
v  -0.8837 0.0000 6.0000
v  4.0159 78.4687 -0.4655
v  4.5896 78.2917 -0.4485
v  9.5665 120.5083 -7.9703
v  8.9823 120.5345 -7.9844
v  9.7183 76.3851 -3.6534
v  8.4189 77.4615 3.3029
v  6.2476 43.6232 4.7622
v  7.5715 43.6232 -2.2654
v  8.3651 76.8026 -3.6938
v  6.1928 43.6232 -2.2654
v  7.1861 77.7742 2.5658
v  4.9916 43.6232 4.0586
v  15.5870 163.9462 -10.1846
v  14.2090 164.0080 -10.2179
v  12.9455 163.9151 -3.9254
v  14.1939 163.8424 -3.1917
v  9.4709 164.1870 -8.9004
v  9.7467 164.1286 -6.9527
v  10.3309 164.1024 -6.9386
v  10.6453 164.1342 -8.8721
v  7.5715 0.0000 -2.2654
v  6.2476 0.0000 4.7622
v  4.9916 0.0000 4.0586
v  6.1928 0.0000 -2.2654
v  4.8794 78.0156 -2.3723
v  3.7261 78.3715 -2.4066
v  8.7065 120.5929 -9.9322
v  9.8809 120.5401 -9.9038
v  2.6415 0.0000 -0.8334
v  2.3463 0.0000 1.1080
v  1.7617 0.0000 1.1080
v  1.4665 0.0000 -0.8334
v  7.1862 77.9607 4.4982
v  13.4295 120.2483 -4.2235
v  12.1620 120.2760 -3.0164
v  12.9264 163.8700 -1.9847
v  4.9917 0.0000 6.0000
v  3.2120 79.1869 4.3798
v  8.1151 120.4577 -3.1141
v  5.3934 78.5138 4.4448
v  3.1652 43.6232 6.0000
v  4.9917 43.6232 6.0000
v  2.3463 43.6232 1.1080
v  8.8795 164.0518 -2.0824
v  8.2478 164.1261 -4.0387
v  11.7711 163.9679 -3.9537
v  11.1008 163.9520 -2.0288
v  6.0327 78.1300 2.5314
v  11.0067 120.3738 -4.9854
v  12.1811 120.3211 -4.9571
v  2.5728 79.1975 2.4283
v  0.2915 43.6232 4.0586
v  1.4665 43.6232 -0.8334
v  3.1652 0.0000 6.0000
v  3.8165 0.0000 4.0586
v  0.2915 0.0000 4.0586
v  0.9428 0.0000 6.0000
v  3.7933 120.8474 -11.4824
v  5.1713 120.7855 -11.4492
v  6.3090 120.5848 -5.0988
v  -0.8837 43.6232 6.0000
v  1.7617 43.6232 1.1080
v  14.8226 120.3521 -11.2163
v  13.4446 120.4139 -11.2496
v  2.6415 43.6232 -0.8334
v  0.9428 43.6232 6.0000
v  10.3364 120.3580 -3.0605
v  3.8165 43.6232 4.0586
v  7.4834 120.5321 -5.0705
v  42.9082 122.2487 -1.8645
v  13.0096 178.5498 -0.3428
v  -20.7294 123.5535 -1.8645
v  13.0110 178.5905 -1.3378
v  -20.7280 123.5942 -2.8595
v  42.9096 122.2894 -2.8595
# 96 vertices

vn -0.9782 0.1090 0.1769
vn -0.9779 0.1118 0.1765
vn -0.9821 0.0361 0.1846
vn -0.9821 0.0353 0.1850
vn -0.0080 -0.1212 -0.9926
vn -0.0020 -0.1040 -0.9946
vn 0.0002 -0.0242 -0.9997
vn 0.0000 -0.0232 -0.9997
vn 0.9777 -0.1108 -0.1782
vn 0.6243 -0.1489 -0.7669
vn 0.6403 -0.0380 -0.7672
vn 0.9818 -0.0367 -0.1865
vn 0.0443 0.9987 0.0236
vn 0.0000 -1.0000 -0.0000
vn -0.6934 0.1512 0.7045
vn -0.6960 0.1374 0.7047
vn -0.7061 0.1074 0.6999
vn -0.7071 0.0997 0.7000
vn 0.6660 0.0280 0.7454
vn -0.6494 0.1372 0.7480
vn -0.6457 0.0981 0.7573
vn 0.6030 0.0225 0.7975
vn 0.9789 -0.0672 0.1928
vn 0.9788 -0.0676 0.1932
vn 0.9823 -0.0276 0.1855
vn 0.9823 -0.0287 0.1851
vn -0.0059 -0.1145 -0.9934
vn -0.0001 -0.0978 -0.9952
vn 0.0002 -0.0220 -0.9998
vn 0.0000 -0.0211 -0.9998
vn -0.6167 -0.0242 -0.7868
vn -0.9785 0.0677 -0.1948
vn -0.9820 0.0280 -0.1869
vn -0.6254 0.0023 -0.7803
vn 0.6215 -0.1372 -0.7713
vn -0.6383 -0.0325 -0.7691
vn -0.5766 -0.0249 -0.8166
vn 0.6204 -0.0974 -0.7782
vn 0.6995 0.0174 0.7145
vn 0.6988 0.0123 0.7152
vn 0.6899 0.0068 0.7239
vn 0.6897 0.0110 0.7240
vn 0.0443 0.9987 0.0237
vn 0.0070 0.1206 0.9927
vn 0.6249 0.0252 0.7803
vn 0.6683 0.0108 0.7438
vn -0.0204 0.0813 0.9965
vn 0.0017 0.1007 0.9949
vn -0.6332 0.1467 0.7600
vn -0.6487 0.0368 0.7602
vn 0.0000 0.0223 0.9998
vn -0.6423 0.0382 0.7655
vn 0.6067 -0.1457 -0.7814
vn 0.6342 -0.1042 -0.7661
vn -0.6585 -0.0106 -0.7525
vn -0.5986 -0.0297 -0.8005
vn -0.6067 0.0005 -0.7949
vn -0.6310 0.0033 -0.7758
vn -0.9844 0.0131 0.1752
vn -0.9813 0.0766 0.1767
vn -0.9806 0.0849 0.1766
vn -0.9827 0.0000 0.1851
vn 0.0252 0.0232 -0.9994
vn 0.0206 -0.0774 -0.9968
vn 0.0200 -0.0801 -0.9966
vn 0.0000 0.0000 -1.0000
vn 0.9842 -0.0131 -0.1767
vn 0.6575 0.0063 -0.7535
vn 0.6537 -0.1065 -0.7493
vn 0.9810 -0.0766 -0.1780
vn 0.6377 0.0000 -0.7703
vn 0.9824 0.0000 -0.1866
vn -0.7020 0.0000 0.7122
vn -0.7014 0.0390 0.7117
vn -0.7016 0.0386 0.7116
vn -0.7142 -0.0040 0.7000
vn 0.6461 0.0000 0.7633
vn -0.6461 0.0000 0.7633
vn 0.6582 -0.0050 0.7528
vn -0.6533 -0.0065 0.7571
vn 0.6390 -0.0294 0.7686
vn 0.9806 -0.0218 0.1950
vn 0.9795 -0.0529 0.1944
vn 0.9797 -0.0491 0.1945
vn 0.9827 0.0000 0.1851
vn 0.0208 -0.0732 -0.9971
vn 0.0203 -0.0756 -0.9969
vn -0.6171 0.0294 -0.7863
vn -0.9803 0.0218 -0.1965
vn -0.9794 0.0490 -0.1959
vn -0.9824 0.0000 -0.1866
vn -0.6377 0.0000 -0.7703
vn 0.6191 0.0000 -0.7854
vn -0.6191 0.0000 -0.7854
vn 0.6148 -0.0383 -0.7877
vn -0.6115 0.0294 -0.7907
vn 0.6267 0.0075 -0.7792
vn 0.7020 0.0000 0.7122
vn 0.7020 -0.0073 0.7122
vn 0.7018 -0.0070 0.7123
vn 0.6890 -0.0292 0.7242
vn 0.0000 0.0000 1.0000
vn 0.6336 -0.0022 0.7737
vn -0.0003 0.0223 0.9998
vn 0.6257 -0.0294 0.7795
vn -0.0252 -0.0232 0.9994
vn -0.6656 -0.0060 0.7463
vn -0.6625 0.1051 0.7417
vn -0.0201 0.0765 0.9969
vn 0.6221 -0.0370 -0.7821
vn 0.6392 0.0070 -0.7690
vn -0.5980 0.0294 -0.8010
vn -0.6395 -0.0146 -0.7686
vn -0.0006 -0.0273 0.9996
vn -0.8525 0.5224 0.0202
vn -0.0205 -0.9990 -0.0409
vn 0.8832 0.4685 0.0204
# 117 vertex normals

vt 0.2184 0.4929 0.0000
vt 0.2028 0.4913 0.0000
vt 0.1746 0.2756 0.0000
vt 0.1905 0.2756 0.0000
vt 0.0306 0.4849 0.0000
vt 0.0471 0.4824 0.0000
vt 0.0188 0.2662 0.0000
vt 0.0020 0.2662 0.0000
vt 0.0614 0.4838 0.0000
vt 0.0334 0.2662 0.0000
vt 0.3633 0.2240 0.0000
vt 0.3785 0.1312 0.0000
vt 0.3937 0.1400 0.0000
vt 0.3800 0.2236 0.0000
vt 0.3604 0.1208 0.0000
vt 0.3770 0.1208 0.0000
vt 0.3915 0.0376 0.0000
vt 0.3764 0.0283 0.0000
vt 0.2332 0.4914 0.0000
vt 0.2916 0.7351 0.0000
vt 0.2767 0.7356 0.0000
vt 0.3935 0.1145 0.0000
vt 0.3915 0.0120 0.0000
vt 0.2643 0.4838 0.0000
vt 0.2712 0.4827 0.0000
vt 0.3309 0.7349 0.0000
vt 0.3239 0.7350 0.0000
vt 0.3327 0.4713 0.0000
vt 0.3172 0.4777 0.0000
vt 0.2911 0.2756 0.0000
vt 0.3070 0.2756 0.0000
vt 0.1459 0.4672 0.0000
vt 0.1624 0.4647 0.0000
vt 0.1362 0.2662 0.0000
vt 0.1195 0.2662 0.0000
vt 0.1316 0.4731 0.0000
vt 0.1049 0.2662 0.0000
vt 0.4965 0.2205 0.0000
vt 0.4799 0.2210 0.0000
vt 0.4646 0.1382 0.0000
vt 0.4797 0.1285 0.0000
vt 0.4227 0.2036 0.0000
vt 0.4260 0.1780 0.0000
vt 0.4331 0.1778 0.0000
vt 0.4369 0.2033 0.0000
vt 0.4936 0.1208 0.0000
vt 0.4776 0.0283 0.0000
vt 0.4625 0.0376 0.0000
vt 0.4770 0.1208 0.0000
vt 0.1035 0.4745 0.0000
vt 0.0895 0.4767 0.0000
vt 0.1501 0.7324 0.0000
vt 0.1643 0.7321 0.0000
vt 0.4341 0.1019 0.0000
vt 0.4305 0.0764 0.0000
vt 0.4235 0.0764 0.0000
vt 0.4199 0.1019 0.0000
vt 0.3024 0.4807 0.0000
vt 0.3773 0.7333 0.0000
vt 0.3621 0.7335 0.0000
vt 0.4644 0.1126 0.0000
vt 0.4625 0.0120 0.0000
vt 0.2547 0.4881 0.0000
vt 0.3135 0.7346 0.0000
vt 0.2809 0.4840 0.0000
vt 0.2541 0.2756 0.0000
vt 0.2760 0.2756 0.0000
vt 0.2443 0.2756 0.0000
vt 0.4155 0.1139 0.0000
vt 0.4079 0.1397 0.0000
vt 0.4505 0.1385 0.0000
vt 0.4424 0.1132 0.0000
vt 0.1175 0.4752 0.0000
vt 0.1780 0.7311 0.0000
vt 0.1923 0.7308 0.0000
vt 0.0754 0.4817 0.0000
vt 0.0477 0.2662 0.0000
vt 0.0620 0.2662 0.0000
vt 0.4404 0.0120 0.0000
vt 0.4483 0.0376 0.0000
vt 0.4057 0.0376 0.0000
vt 0.4136 0.0120 0.0000
vt 0.2859 0.9960 0.0000
vt 0.2708 0.9973 0.0000
vt 0.2617 0.7369 0.0000
vt 0.1746 0.0151 0.0000
vt 0.1905 0.0151 0.0000
vt 0.0996 0.9980 0.0000
vt 0.1163 0.9976 0.0000
vt 0.1070 0.7336 0.0000
vt 0.0903 0.7340 0.0000
vt 0.0188 0.0020 0.0000
vt 0.0020 0.0020 0.0000
vt 0.1302 0.9964 0.0000
vt 0.1209 0.7324 0.0000
vt 0.0334 0.0020 0.0000
vt 0.2055 0.0151 0.0000
vt 0.2055 0.2756 0.0000
vt 0.3008 0.9955 0.0000
vt 0.2373 0.0151 0.0000
vt 0.2443 0.0151 0.0000
vt 0.2373 0.2756 0.0000
vt 0.3401 0.9953 0.0000
vt 0.3331 0.9954 0.0000
vt 0.4032 0.9943 0.0000
vt 0.3864 0.9937 0.0000
vt 0.3940 0.7339 0.0000
vt 0.2911 0.0151 0.0000
vt 0.3070 0.0151 0.0000
vt 0.2170 0.9954 0.0000
vt 0.2338 0.9950 0.0000
vt 0.2245 0.7310 0.0000
vt 0.2077 0.7313 0.0000
vt 0.1362 0.0020 0.0000
vt 0.1195 0.0020 0.0000
vt 0.2016 0.9948 0.0000
vt 0.1049 0.0020 0.0000
vt 0.0763 0.0020 0.0000
vt 0.0620 0.0020 0.0000
vt 0.0763 0.2662 0.0000
vt 0.1594 0.9965 0.0000
vt 0.1736 0.9961 0.0000
vt 0.2760 0.0151 0.0000
vt 0.3712 0.9939 0.0000
vt 0.2275 0.0151 0.0000
vt 0.2275 0.2756 0.0000
vt 0.3227 0.9950 0.0000
vt 0.3493 0.9944 0.0000
vt 0.3402 0.7340 0.0000
vt 0.2541 0.0151 0.0000
vt 0.0906 0.0020 0.0000
vt 0.0906 0.2662 0.0000
vt 0.1873 0.9951 0.0000
vt 0.1445 0.9961 0.0000
vt 0.1352 0.7320 0.0000
vt 0.0477 0.0020 0.0000
vt 0.9834 0.3543 0.0000
vt 0.6797 0.8225 0.0000
vt 0.3370 0.3652 0.0000
vt 0.8505 0.2200 0.0000
vt 0.7590 0.0687 0.0000
vt 0.8188 0.0686 0.0000
vt 0.9104 0.2199 0.0000
vt 0.5920 0.2439 0.0000
vt 0.6355 0.2439 0.0000
vt 0.6355 0.0626 0.0000
vt 0.5920 0.0626 0.0000
vt 0.6664 0.0662 0.0000
vt 0.6571 0.2703 0.0000
vt 0.7303 0.2703 0.0000
vt 0.7396 0.0662 0.0000
# 151 texture coords

g Box001
usemtl wire_028089177
s 1
f 1/1/1 2/2/2 3/3/3 4/4/4 
s 2
f 2/5/5 5/6/6 6/7/7 3/8/8 
s 1
f 5/6/9 7/9/10 8/10/11 6/7/12 
s 4
f 9/11/13 10/12/13 11/13/13 12/14/13 
f 13/15/14 14/16/14 15/17/14 16/18/14 
s 2
f 1/1/15 17/19/16 18/20/17 19/21/18 
s 4
f 10/12/13 20/22/13 11/13/13 
f 15/17/14 21/23/14 16/18/14 
s 1
f 22/24/19 23/25/20 24/26/21 25/27/22 
f 26/28/23 27/29/24 28/30/25 29/31/26 
s 2
f 30/32/27 26/33/28 29/34/29 31/35/30 
s 1
f 32/36/31 30/32/32 31/35/33 33/37/34 
s 4
f 34/38/13 35/39/13 36/40/13 37/41/13 
f 38/42/13 39/43/13 40/44/13 41/45/13 
f 42/46/14 43/47/14 44/48/14 45/49/14 
s 1
f 46/50/35 47/51/36 48/52/37 49/53/38 
s 4
f 50/54/14 51/55/14 52/56/14 53/57/14 
s 2
f 54/58/39 27/29/40 55/59/41 56/60/42 
s 4
f 37/41/13 36/40/13 57/61/43 
f 44/48/14 43/47/14 58/62/14 
s 1
f 17/19/44 59/63/45 60/64/46 18/20/47 
f 59/63/45 22/24/19 25/27/22 60/64/46 
f 54/58/48 61/65/49 62/66/50 63/67/51 
f 61/65/49 23/25/20 64/68/52 62/66/50 
s 4
f 11/13/13 20/22/13 65/69/13 66/70/13 
f 66/70/13 65/69/13 39/43/13 38/42/13 
f 57/61/43 36/40/13 67/71/13 68/72/13 
f 68/72/13 67/71/13 41/45/13 40/44/13 
s 1
f 32/36/31 69/73/53 70/74/54 71/75/55 
f 69/73/53 46/50/35 49/53/38 70/74/54 
f 7/9/10 72/76/56 73/77/57 8/10/11 
f 72/76/56 47/51/36 74/78/58 73/77/57 
s 4
f 44/48/14 58/62/14 75/79/14 76/80/14 
f 76/80/14 75/79/14 51/55/14 50/54/14 
f 21/23/14 15/17/14 77/81/14 78/82/14 
f 78/82/14 77/81/14 53/57/14 52/56/14 
s 1
f 10/83/59 9/84/59 79/85/60 19/21/61 
f 19/21/61 79/85/60 2/2/2 1/1/1 
f 13/86/62 16/87/62 4/4/4 3/3/3 
s 2
f 9/88/63 12/89/63 80/90/64 79/91/65 
f 79/91/65 80/90/64 5/6/6 2/5/5 
f 14/92/66 13/93/66 3/8/8 6/7/7 
s 1
f 12/89/67 11/94/68 81/95/69 80/90/70 
f 80/90/70 81/95/69 7/9/10 5/6/9 
f 15/96/71 14/92/72 6/7/12 8/10/11 
s 2
f 16/87/73 21/97/73 82/98/74 4/4/75 
f 4/4/75 82/98/74 17/19/16 1/1/15 
f 20/99/76 10/83/76 19/21/18 18/20/17 
s 1
f 52/100/77 51/101/78 64/68/52 83/102/79 
f 83/102/79 64/68/52 23/25/20 22/24/19 
f 40/103/80 39/104/81 25/27/22 24/26/21 
f 34/105/82 37/106/82 55/59/83 84/107/84 
f 84/107/84 55/59/83 27/29/24 26/28/23 
f 43/108/85 42/109/85 29/31/26 28/30/25 
s 2
f 35/110/63 34/111/63 84/112/86 85/113/87 
f 85/113/87 84/112/86 26/33/28 30/32/27 
f 42/114/66 45/115/66 31/35/30 29/34/29 
s 1
f 36/116/88 35/110/89 85/113/90 71/75/55 
f 71/75/55 85/113/90 30/32/32 32/36/31 
f 45/115/91 44/117/92 33/37/34 31/35/33 
f 50/118/93 53/119/94 74/78/58 86/120/95 
f 86/120/95 74/78/58 47/51/36 46/50/35 
f 38/121/96 41/122/97 49/53/38 48/52/37 
s 2
f 58/123/98 43/108/98 28/30/99 63/67/100 
f 63/67/100 28/30/99 27/29/40 54/58/39 
f 37/106/101 57/124/101 56/60/42 55/59/41 
s 1
f 21/97/102 78/125/77 87/126/103 82/98/104 
f 82/98/104 87/126/103 59/63/45 17/19/44 
f 65/127/105 20/99/106 18/20/47 60/64/46 
f 78/125/77 52/100/77 83/102/79 87/126/103 
f 87/126/103 83/102/79 22/24/19 59/63/45 
f 39/104/81 65/127/105 60/64/46 25/27/22 
f 57/124/106 68/128/107 88/129/108 56/60/109 
f 56/60/109 88/129/108 61/65/49 54/58/48 
f 75/130/78 58/123/102 63/67/51 62/66/50 
f 68/128/107 40/103/80 24/26/21 88/129/108 
f 88/129/108 24/26/21 23/25/20 61/65/49 
f 51/101/78 75/130/78 62/66/50 64/68/52 
f 44/117/92 76/131/93 89/132/110 33/37/34 
f 33/37/34 89/132/110 69/73/53 32/36/31 
f 67/133/111 36/116/88 71/75/55 70/74/54 
f 76/131/93 50/118/93 86/120/95 89/132/110 
f 89/132/110 86/120/95 46/50/35 69/73/53 
f 41/122/97 67/133/111 70/74/54 49/53/38 
f 11/94/68 66/134/112 90/135/113 81/95/69 
f 81/95/69 90/135/113 72/76/56 7/9/10 
f 77/136/94 15/96/71 8/10/11 73/77/57 
f 66/134/112 38/121/96 48/52/37 90/135/113 
f 90/135/113 48/52/37 47/51/36 72/76/56 
f 53/119/94 77/136/94 73/77/57 74/78/58 
f 91/137/114 92/138/114 93/139/114 
s off
f 94/140/115 95/141/115 93/142/115 92/143/115 
f 95/144/116 96/145/116 91/146/116 93/147/116 
f 96/148/117 94/149/117 92/150/117 91/151/117 
# 89 polygons - 5 triangles

